# xmcd CD database file
#
# Track frame offsets:
#	150
#	11789
#	29824
#	43758
#	79962
#	95425
#	103823
#	138533
#	158195
#	170804
#	193234
#	210926
#	222991
#
# Disc length: 3237 seconds
#
# Revision: 1
# Processed by: cddbd v1.5.2PL0 Copyright (c) Steve Scherf et al.
# Submitted via: CDex 1.70beta2
#
DISCID=c30ca30d
DTITLE=Globi - Globi beim Roten Kreuz
DYEAR=2005
DGENRE=Speech
TTITLE0=D'Vorgschicht
TTITLE1=en Unfall
TTITLE2=De Globi spändet Bluet
TTITLE3=S'Rot Chrüz, de Globi macht sich kundig
TTITLE4=De Globi goht go Chleider chaufe
TTITLE5=Zweimal Wiehnacht
TTITLE6=En unfreiwilligi Reis
TTITLE7=S'Erdbebä i de Türkei
TTITLE8=S'Mitenand Lied
TTITLE9=Kei Wasser in Afgahnischtan
TTITLE10=D'Mekonger Dorfmusikant
TTITLE11=De Globi wird Babysitter
TTITLE12=En Überraschig
EXTD=YEAR: 2005
EXTT0=
EXTT1=
EXTT2=
EXTT3=
EXTT4=
EXTT5=
EXTT6=
EXTT7=
EXTT8=
EXTT9=
EXTT10=
EXTT11=
EXTT12=
PLAYORDER=
